<?xml version="1.0" encoding="UTF-8"?>
<svg width="144" height="144" viewBox="0 0 144 144" xmlns="http://www.w3.org/2000/svg">
  <!-- Material Design WiFi icon (signal_wifi_4_bar) - moved down -->
  <g transform="translate(72, 50) scale(1.8, 1.8) translate(-12, -12)">
    <path d="M1 9l2 2c4.97-4.97 13.03-4.97 18 0l2-2C16.93 2.93 7.07 2.93 1 9zm8 8l3 3 3-3c-1.65-1.66-4.34-1.66-6 0zm-4-4l2 2c2.76-2.76 7.24-2.76 10 0l2-2C15.14 9.14 8.87 9.14 5 13z" fill="white"/>
  </g>
  <!-- Material UI LocalShippingOutlined icon - moved up and simplified -->
  <g transform="translate(72, 85) scale(1.8, 1.8) translate(-12, -12)">
    <path d="M20,8h-3V4H3C1.9,4,1,4.9,1,6v11h2c0,1.66,1.34,3,3,3s3-1.34,3-3h6c0,1.66,1.34,3,3,3s3-1.34,3-3h2v-5L20,8z M6,18c-0.55,0-1-0.45-1-1s0.45-1,1-1s1,0.45,1,1S6.55,18,6,18z M18,18c-0.55,0-1-0.45-1-1s0.45-1,1-1s1,0.45,1,1S18.55,18,18,18z" stroke="white" stroke-width="1.2" fill="none"/>
  </g>
</svg>