<?xml version="1.0" encoding="UTF-8"?>
<svg id="DESIGNED_BY_FREEPIK" data-name="DESIGNED BY FREEPIK"
     xmlns="http://www.w3.org/2000/svg"
     viewBox="0 0 771.77 317.01">

  <defs>
    <style>
      .cls-1 {
        fill: #534d56;
      }
      .cls-2 {
        fill: #0496ff;
      }
    </style>
  </defs>

  <!-- Existing top content (unchanged) -->
  <g>
    <path class="cls-1" d="m14.37,101.22v116.99c0,3.6,2.92,6.52,6.52,6.52h71.01c3.6,0,6.52-2.92,6.52-6.52h0c0-3.6-2.92-6.52-6.52-6.52H30.97c-2.09,0-3.77-1.71-3.74-3.8l.18-106.62c0-.67-.22-1.3-.66-1.81-.99-1.14-3.05-3.01-6.39-2.84-2.92.14-4.55,1.81-5.39,2.86-.39.5-.6,1.1-.6,1.73Z"/>
    <path class="cls-1" d="m366.21,101.51v123.23h87.57c2.89,0,5.24-2.34,5.24-5.24v-1.57c0-2.9-3.56-6.45-6.46-6.44h-73.3v-41.11l74.57-.63c2.87-.02,5.19-2.36,5.19-5.24v-3.34c0-2.9-2.32-4.58-5.23-4.57l-74.54.72v-42.77h74.23c.24,0,3.51-.18,5.11-2.9,1.38-2.36,1.01-4.48.74-5.2-.75-3.77-4.98-4.77-5.49-4.94h-87.63Z"/>
    <path class="cls-1" d="m221.61,215.13l-46.64-107.4c-1.6-3.69-5.24-6.08-9.26-6.08h0c-4.01,0-7.65,2.38-9.25,6.06l-46.91,107.41c-1.34,3.08-.5,6.89,2.37,8.64,3.48,2.12,7.86.63,9.44-2.93l16.29-36.88c.03-.07.1-.12.18-.12h55.67c.08,0,.15.05.18.12l16.2,36.88c1.56,3.56,5.92,5.04,9.38,2.93,2.86-1.75,3.7-5.56,2.36-8.63Zm-33.58-44.62l-.18.28h-44.36l-.18-.28,20.38-45.89c.76-1.72,3.2-1.72,3.96,0l20.38,45.89Z"/>
    <path class="cls-1" d="m338.36,180.46c-.83-.14-3.82-.49-6.2,1.53-.98.83-1.51,1.78-1.79,2.37l-1.02,2.88c-3.53,8.33-8.91,14.85-16.14,19.55-7.24,4.7-15.97,7.05-26.2,7.05-9.06,0-17.2-2.14-24.44-6.42-7.23-4.29-12.91-10.41-17.03-18.39-4.12-7.97-6.18-17.25-6.18-27.85s2.06-19.9,6.18-27.93c4.12-8.03,9.79-14.19,17.03-18.47,7.24-4.29,15.38-6.43,24.44-6.43,10.24,0,18.97,2.38,26.2,7.14,7.23,4.76,12.62,11.37,16.14,19.82l1.53,5.02c.89,2.91,3.58,4.91,6.62,4.91,4.67,0,8-4.53,6.61-8.99l-.29-.94c-4.47-12.02-11.62-21.33-21.44-27.93-9.82-6.6-21.62-9.91-35.38-9.91-11.29,0-21.53,2.71-30.7,8.12-9.18,5.42-16.41,12.97-21.7,22.67-5.29,9.7-7.94,20.68-7.94,32.93s2.65,23.21,7.94,32.85c5.29,9.64,12.53,17.17,21.7,22.58,9.18,5.42,19.41,8.12,30.7,8.12,13.65,0,25.41-3.27,35.29-9.82,9.88-6.55,17.06-15.77,21.53-27.67.09-.55.33-2.48-.85-4.24-1.35-2.01-3.58-2.38-4.61-2.54Z"/>
    <!-- The colored "DSD" shapes up top -->
    <g>
      <g>
        <path class="cls-2" d="m563.96,2.34c-24.98,2.08-49.55,12.96-66.72,29.6-3.52,3.4-4.06,4.56-4.06,8.59,0,2.8.1,3.3.86,4.72,1.14,2.11,3.4,4.37,5.43,5.41,1.27.63,2.25.85,4.19.98,3.84.19,5.36-.5,9.43-4.22,3.9-3.59,9.43-7.77,13.58-10.35,7.11-4.37,16.7-8.43,24.12-10.22,1.49-.35,3.21-.79,3.81-.94.6-.16,3.17-.6,5.71-1.01,6.57-1.01,17.46-1.01,24.19,0,17.81,2.71,33.74,10.22,46.75,22.08,4.16,3.78,5.78,4.56,9.36,4.56,2.29,0,2.95-.13,4.48-.88,2-.94,4.63-3.52,5.65-5.47,1.46-2.86,1.36-7.05-.19-9.91-1.59-2.89-10.76-10.63-18.28-15.48-14.82-9.5-30.66-15.16-48.31-17.18-4-.47-15.84-.63-20-.28Z"/>
        <path class="cls-2" d="m565.08,42.79c-3.27.35-10.19,1.89-13.93,3.11-10.03,3.33-18.92,8.62-25.99,15.51-3.75,3.65-4.35,4.84-4.32,8.53.03,2.17.19,3.02.83,4.4,1.68,3.62,4.92,6.2,8.66,6.92,1.62.31,2.25.28,3.94-.16,2.48-.63,4.03-1.57,6.7-4.09,8.6-8.09,19.55-12.43,31.39-12.43s22.92,4.28,32.28,12.96c3.17,2.93,4.63,3.55,8.38,3.55,3.33,0,5.08-.76,7.59-3.24,2.44-2.45,3.36-4.56,3.36-7.93,0-3.71-.86-5.38-4.6-8.9-10.47-9.91-24.41-16.36-39.04-18.15-2.48-.28-12.66-.38-15.24-.09Z"/>
      </g>
      <path class="cls-2" d="m499.46,109.13c6.11,0,11.07,5.57,11.07,12.44v57.5c0,16.06,6.85,26.6,27.07,26.6s22.93-9.95,22.93-26.66v-78.63c0-6.93,5-12.55,11.16-12.55h0c6.16,0,11.16,5.62,11.16,12.55v79.23c0,26.24-11.04,46.75-47.54,46.75s-46.91-18.82-46.91-46.32v-58.48c0-6.87,4.96-12.44,11.07-12.44h0Z"/>
      <path class="cls-2" d="m604.08,109.54c0-5.53,3.98-10.01,8.9-10.01h35.69c23.39,0,42.81,12.07,42.81,36.44s-18.47,38.44-44.94,38.44h-20.38v37.73c0,6.86-4.94,12.41-11.04,12.41h0c-6.1,0-11.04-5.56-11.04-12.41v-102.6Zm22.08,47.24h19.11c14.48,0,23.76-5.24,23.76-20.37,0-13.41-9.48-19.17-23.18-19.17h-19.69v39.54Z"/>
    </g>
  </g>

  <!-- REPLACE the bottom text paths with a single text element -->
  <g>
    <!-- Adjust the x, y, font-size, etc. as you prefer -->
    <text 
      x="70%" 
      y="90%" 
      class="cls-1" 
      text-anchor="middle" 
      font-size="65" 
      font-family="Verdana, sans-serif"
    >
      Solutions
    </text>
  </g>
</svg>
